<svg width="84" height="99" viewBox="0 0 84 99" fill="none" xmlns="http://www.w3.org/2000/svg">
<path d="M12.6864 31.2307C12.8752 32.3746 13.3957 33.4054 14.1586 34.1466C14.9216 34.8877 15.8795 35.293 16.8683 35.293C17.857 35.293 18.8149 34.8877 19.5779 34.1466C20.3409 33.4054 20.8613 32.3746 21.0501 31.2307L21.7005 27.2799C21.7868 26.5321 21.7363 25.7712 21.5524 25.0483C21.3685 24.3254 21.0555 23.6573 20.6343 23.0887C20.2132 22.5202 19.6937 22.0645 19.1107 21.7522C18.5278 21.44 17.8949 21.2783 17.2545 21.2782H16.482C15.8416 21.2783 15.2087 21.44 14.6258 21.7523C14.0428 22.0646 13.5234 22.5203 13.1022 23.0888C12.6811 23.6573 12.368 24.3254 12.1842 25.0483C12.0003 25.7712 11.9498 26.5321 12.036 27.28L12.6864 31.2307Z" fill="#FE9677"/>
<path d="M31.9914 44.7918H32.2492C32.6771 44.7875 33.0953 44.6421 33.4566 44.3719C33.8179 44.1017 34.1077 43.7177 34.2932 43.2633L38.7186 32.4968C38.9569 31.9174 38.9946 31.2515 38.8239 30.6399C38.6532 30.0283 38.2874 29.519 37.8038 29.2195C37.3202 28.92 36.7567 28.8539 36.2325 29.0351C35.7083 29.2163 35.2645 29.6307 34.9948 30.1906L30.8386 38.8521C30.8386 38.8521 21.9461 37.4666 21.2294 37.3594C21.1565 37.3476 21.0828 37.3446 21.0094 37.3505H21.0018C20.9753 37.346 20.9526 37.3415 20.9298 37.3371C20.7929 37.3153 20.6537 37.326 20.5203 37.3683L20.4103 37.3281L18.2716 39.8488L17.1187 41.1985L16.8192 41.5605L16.7433 41.6499L16.6599 41.5471V41.5158L16.6447 41.5337L16.6295 41.5158V41.5471L16.5461 41.6499L16.1707 41.1985L15.0179 39.8488L12.8791 37.3281L12.7692 37.3684C12.6357 37.3261 12.4965 37.3155 12.3596 37.3371C11.5784 37.4577 8.2717 38.2578 7.06583 38.5527C6.71312 38.632 6.3899 38.8381 6.14056 39.1426C5.96404 39.3664 5.8124 39.6157 5.6893 39.8846L2.76935 46.2577L1.57864 48.8499L1.44593 49.1404C1.28337 49.5009 1.19648 49.9021 1.19252 50.3103C1.18857 50.7186 1.26767 51.122 1.42319 51.4868L5.41245 60.8007C5.62134 61.2889 5.96639 61.6776 6.38967 61.9014C6.81295 62.1252 7.28868 62.1705 7.73697 62.0298C7.82823 62.0064 7.91719 61.972 8.00245 61.927C8.13709 61.8623 8.26446 61.7782 8.38166 61.6768V63.7804C8.38165 66.291 9.22146 68.7004 10.7189 70.486C12.2164 72.2716 14.2508 73.2894 16.3809 73.3187C18.511 73.3479 20.565 72.3863 22.0974 70.6423C23.6298 68.8984 24.517 66.5127 24.5667 64.0027C24.6674 58.8678 24.7679 53.3199 24.8698 49.0599C24.8736 48.9259 24.8887 48.2644 24.9077 47.5001C24.9077 47.4465 24.9115 47.3884 24.9115 47.3303C24.9418 46.1773 24.9722 44.8767 24.9722 44.8499L29.8564 44.8097L31.9914 44.7918ZM8.38169 56.8231L6.20878 50.7225L8.38169 47.3214V56.8231Z" fill="#FE9677"/>
<path d="M80.1538 10.7805H30.1985C29.4948 10.7806 28.8199 11.1101 28.3222 11.6966C27.8246 12.2831 27.545 13.0785 27.5449 13.9079V14.4919C27.5455 15.3212 27.8253 16.1162 28.3228 16.7026C28.8203 17.2889 29.4949 17.6187 30.1985 17.6194V35.8884L33.4356 29.1495C33.5569 28.899 33.6977 28.6623 33.8562 28.4425V19.9438H76.4961V53.4659H33.8562V46.5079C33.3543 46.7662 32.8129 46.9008 32.2653 46.9036L30.1985 46.919V55.1603C30.1987 55.5041 30.2563 55.8446 30.3681 56.1622C30.4799 56.4798 30.6438 56.7684 30.8502 57.0113C31.0567 57.2543 31.3017 57.447 31.5714 57.5783C31.841 57.7096 32.13 57.7771 32.4218 57.7767H77.9338C78.5225 57.7766 79.0871 57.5009 79.5034 57.0102C79.9197 56.5196 80.1537 55.8542 80.1538 55.1603V17.6194C80.8574 17.6187 81.532 17.2889 82.0295 16.7026C82.527 16.1162 82.8068 15.3212 82.8074 14.4919V13.9079C82.8073 13.0785 82.5277 12.2831 82.0301 11.6966C81.5325 11.1101 80.8575 10.7806 80.1538 10.7805Z" fill="#984063"/>
</svg>
